<?xml version="1.0" encoding="utf-8"?>
<!-- Generator: Adobe Illustrator 27.9.0, SVG Export Plug-In . SVG Version: 6.00 Build 0)  -->
<svg version="1.1" id="Слой_1" xmlns="http://www.w3.org/2000/svg" xmlns:xlink="http://www.w3.org/1999/xlink" x="0px" y="0px"
	 viewBox="0 0 357 119" style="enable-background:new 0 0 357 119;" xml:space="preserve">
<style type="text/css">
	.st0{fill:#3E3300;}
</style>
<path class="st0" d="M84.1,85.3c0.2-0.4,0-1.4-0.3-1.8s-1.4-0.3-1.3,0.1c0.1,0.6,0.3,1.2,0.8,1.7C83.5,85.6,83.9,85.6,84.1,85.3
	L84.1,85.3z M50,41.4c-0.1,0.6-0.2,1.1-0.5,1.6c-0.7,1.3-2,1.4-2.6,0.7c-0.6-0.6-0.9-2.5,0.1-4c0.4-0.6,0.8-1.1,1.3-1.6
	c-0.4-0.8-1.1-1.8-1.4-1.7c-0.1,0.1-0.3,0.1-0.3,0.2c-0.4,1-0.7,4.3-0.7,5.6c0,1.4-0.1,2.8-0.1,4.2c0.2,3.9,0.4,7.4,0.4,10.7
	c0.9-0.3,1.7-0.5,2.6-0.5c1.8,0,3.7,0.2,5.6,1c-0.1-0.2-0.2-0.3-0.3-0.5c-0.7-1.4-0.8-2.6-0.4-3.7c-0.4-0.1-0.8-0.2-1-0.4
	c-0.5-0.6-0.7-1.1-0.3-1.7c0.2-0.3,0.7-0.6,1.4-0.9c-0.1-0.4-0.3-0.8-0.4-1.2c-0.4-0.9-0.8-1.8-1.2-2.8c-0.3-0.8-0.6-1.6-0.9-2.3
	C50.8,43.1,50.4,42.3,50,41.4L50,41.4z M49.6,36.9c0.8-0.6,1.7-1.1,2.7-1.4c2.2-0.7,6.1-0.4,8.4,2.1c0.3,0.3,0.6,0.7,0.9,1
	c0.3-0.7,0.6-1.3,1-2c0.8-1.8,1.6-3.5,2.5-5.3c1.1-2.1,2.2-4.2,3.3-6.3c0.6-1,1.3-2,2-3c0.4-0.6,1.1-0.3,1,0.2
	c-0.2,1.9-0.4,3.8-0.6,5.7C70,35.6,69.4,43,69.4,50.8c0,1.9,0,3.7,0,5.6c0.2,0.2,0.3,0.4,0.5,0.7c2,3,3.5,6.6,3.7,9.9
	s0.1,7.6-2,11.2c0,0,0,0.1-0.1,0.1c0.5,2.1,1.1,4.3,1.8,6.5c0,0.1,0.1,0.2,0.2,0.2c1,0.3,2,0.4,3.1,0.1c0.4-0.1,0.7-0.2,0.9-0.4
	c0.6-0.7,1.2-1.4,1.8-2c0.5-0.4,0.6-0.9,0.5-1.4c-0.1-1.3,0-2.5,0.7-3.7c0.5-1,1.2-1.9,2.3-2.6c0.9-0.6,1.9-0.9,3.1-0.8
	c1,0.1,1.9,0.6,2.5,1.1c1,0.8,1.7,1.8,2.1,2.9c0.3,1,0.5,2,0.7,3c0.4,1.9,0,3.7-0.4,5.5c-0.3,1.2-0.9,2.4-1.6,3.6
	c-0.6,0.9-1.3,1.8-2.3,2.5c-0.9,0.8-2,1.4-3.4,1.7c-0.6,0.2-1.3,0.2-1.9,0.2c-0.5,0-1.1,0-1.6-0.1c-2.3-0.4-4.1-1.4-5.5-2.7
	c-0.8-0.7-1.5-1.5-2-2.3c-0.4-0.8-0.9-1.5-1.4-2.3c-0.3-0.5-0.5-1-1.2-1.4c-0.3-0.1-0.5-0.3-0.7-0.5c-0.7-0.6-1.3-1.2-1.9-1.8
	c-2.6,2.6-6.5,5.1-12,5.6s-9.5-1.4-12.4-4.3c-0.2,0.2-0.4,0.4-0.6,0.5c-0.2,0.2-0.4,0.4-0.7,0.5c-0.7,0.4-0.9,0.9-1.2,1.4
	c-0.4,0.8-0.9,1.5-1.4,2.3c-0.5,0.9-1.2,1.6-2,2.3c-1.4,1.3-3.2,2.3-5.5,2.7c-0.5,0.1-1,0.1-1.6,0.1s-1.3-0.1-1.9-0.2
	c-1.4-0.3-2.4-0.9-3.4-1.7c-1-0.8-1.7-1.6-2.3-2.5c-0.7-1.1-1.3-2.3-1.6-3.6c-0.5-1.8-0.8-3.6-0.4-5.5c0.2-1,0.4-2,0.7-3
	c0.4-1.1,1.1-2,2.1-2.9c0.6-0.5,1.5-1,2.5-1.1c1.2-0.1,2.2,0.2,3.1,0.8c1.1,0.7,1.7,1.6,2.3,2.6c0.7,1.2,0.8,2.4,0.7,3.7
	c0,0.5,0.1,1,0.5,1.4c0.7,0.6,1.2,1.3,1.8,2c0.2,0.2,0.5,0.4,0.9,0.4C36,85.3,37,85.3,38,85c0.1,0,0.2-0.1,0.2-0.2
	c0.5-1.5,0.9-2.9,1.3-4.3c-0.8-1.4-1.4-2.8-1.9-4.2c-2-8.6,1.1-13.2,2.4-15.1c0.5-0.7,1.3-1.5,2.3-2.2c0-0.5,0-1.1,0-1.6
	c0-2.2,0-4.4,0-6.6c0-7.7-0.6-15.2-1.4-22.9c-0.2-1.9-0.4-3.8-0.6-5.7c-0.1-0.5,0.6-0.8,1-0.2c0.7,1,1.4,2,2,3
	c1.2,2.1,2.3,4.2,3.3,6.3c0.9,1.8,1.7,3.5,2.5,5.3C49.5,36.6,49.6,36.7,49.6,36.9L49.6,36.9z M62.6,40c1.2,2,1.6,4.4-0.1,7.9
	c-0.9,1.7-1.6,2.2-1.7,2.3c0,0.1-0.3,0.3-0.1,0.4s1.2,0.4,2.1,0.8c0.4,0.2,1.6,0.8,3,1.7c0.1-2.2,0.2-4.4,0.3-6.8
	c0.1-1.4,0-2.8-0.1-4.2c0-1.3-0.3-4.6-0.7-5.6c0-0.1-0.2-0.2-0.3-0.2c-0.5-0.2-1.7,2.3-1.9,2.5C63,39.2,62.8,39.6,62.6,40L62.6,40z
	 M57.9,59.6c1.2,1.1,2.4,2.4,3.3,4.2c1.4,2.7,1.6,5.3,1,7.5c1.3,2.9,2.8,5.8,4.8,8.4c0.4-0.5,0.8-1,1.1-1.5
	c-2-7.8-2.5-14.5-2.4-22.4c-1.9-1.6-4.5-3.3-7.2-3.5c-0.3,0-0.6,0.1-0.8,0.2c0.9,1.3,1,2.9,0.1,4.6c-0.3,0.5-0.5,1-0.3,1.6
	C57.7,59,57.8,59.3,57.9,59.6L57.9,59.6z M61.2,73.6c-0.9,1.5-2.3,2.5-4,3c-3.2,1-5.6-1.2-6.4-3c-1.3,2.6-2.8,5.3-4.8,8.1
	c-0.4,0.5-0.8,1-1.2,1.5c0.1,0,0.1,0.1,0.2,0.1c5.3,3.7,12.7,3.5,16.9,0.9c1.2-0.7,2.5-1.8,3.8-3.1C63.8,78.5,62.4,76.1,61.2,73.6
	L61.2,73.6z M53.6,67c0.5-0.3,1-0.5,1.6-0.7C56,66,57.1,66,58,66c-0.5-1.3-1-2.7-1.6-4.1c-0.1-0.1-0.1-0.3-0.2-0.4
	c-0.1,0-0.2,0-0.3,0c-0.1,0.1-0.2,0.3-0.2,0.4C54.9,63.7,54.3,65.4,53.6,67L53.6,67z M58.8,68c-1.1-0.3-3.4-0.5-5.7,2.2
	c-0.4,0.5-1.5,2.3,0.3,3.6c2.3,1.6,6-1.1,6.5-3.2C59.5,69.7,59.1,68.9,58.8,68L58.8,68z M54.2,59.3c-1.4-0.6-3.3-0.9-5.9-0.8
	c-0.7,0-1.4,0.1-2,0.3c0,7.5-0.8,14.1-3.2,22.2c0,0.2-0.1,0.4-0.1,0.6c0.1,0.1,0.1,0.1,0.2,0.2c0.3-0.3,0.5-0.6,0.8-0.9
	c3.3-3.7,5.6-8.8,7.2-13.1C52.3,65.1,53.2,62.2,54.2,59.3L54.2,59.3z M42.6,61.5c-2.2,2.8-3.1,6.7-3,8.3c0,1.5,0.1,4.6,1.1,7.7
	C41.8,72.1,42.4,67,42.6,61.5L42.6,61.5z M70.6,73.5c0.7-1.9,0.9-4,0.8-5.8c-0.2-3.8-1.1-6.2-2-7.7C69.5,64.7,69.9,69.1,70.6,73.5
	L70.6,73.5z M55.4,50.1c0.1,0,0.1,0,0.2,0c0.4,0,0.8,0,1,0c0.2-0.5,0.5-1.2,0.8-1.7c0.4-0.8,0.7-1.7,1-2.5c0.3-0.7,0.6-1.3,0.9-2
	c0.5-1.1,0.9-2.3,1.4-3.4c-1.4-2.8-4.1-3.4-5.4-3.5c-1.3-0.1-2.9,0.2-4.5,1.6c-0.1,0.1-0.2,0.1-0.2,0.2c0.1,0.3,0.3,0.6,0.4,0.8
	c0.6,1.4,1.2,2.9,1.8,4.3c0.3,0.7,0.6,1.3,0.9,2c0.4,0.8,0.7,1.7,1,2.5C54.9,48.9,55.1,49.5,55.4,50.1L55.4,50.1z M58.6,49.2
	c0.8-0.7,1.8-1.8,2.1-2.6c0.6-1.5,1.1-2.4,0.7-4.1c-0.2,0.5-0.5,1-0.7,1.5c-0.3,0.8-0.6,1.6-0.9,2.3C59.5,47.3,59,48.2,58.6,49.2
	L58.6,49.2L58.6,49.2z M80.3,84.9c-0.1,0.1-0.2,0.2-0.3,0.3c-0.4,1-1.1,1.8-2.3,2.3C76.9,88,76.1,88,75.2,88c-0.2,0-0.4,0-0.2,0.2
	c0.7,0.8,1.4,1.7,2.2,2.4c0.8,0.8,1.8,1.4,3.3,1.5c5.5,0.9,8.1-4.8,8.6-7.3c0.5-2.3,0.7-3.7-0.1-5.5c-0.3-0.8-0.9-1.6-1.7-2.1
	c-1.1-0.8-2.1-0.9-3.4-0.1c-1.1,0.7-1.6,1.6-1.8,2.6C82,80.1,82,80.5,82,80.8c0,0.2,0.1,0.3,0.4,0.3c1.5-0.1,2.1,0.3,2.7,1
	c1.3,1.6,2,4.7-1,5.5c-0.6,0.2-2-0.1-2.6-0.7c-0.4-0.5-0.7-1-0.8-1.5C80.7,85.3,80.5,84.8,80.3,84.9L80.3,84.9z M31.8,84.9
	c-0.2-0.2-0.4,0.3-0.4,0.4c-0.2,0.5-0.4,1-0.8,1.5c-0.6,0.6-1.9,0.8-2.6,0.7c-3-0.8-2.3-3.9-1-5.5c0.6-0.7,1.2-1.2,2.7-1
	c0.3,0,0.4-0.1,0.4-0.3c0-0.4-0.1-0.8-0.1-1.1c-0.1-1-0.7-1.9-1.8-2.6c-1.3-0.8-2.4-0.7-3.4,0.1c-0.8,0.6-1.3,1.4-1.7,2.1
	c-0.8,1.8-0.6,3.2-0.1,5.5c0.5,2.5,3.1,8.2,8.6,7.3c1.4-0.1,2.5-0.7,3.3-1.5c0.8-0.8,1.5-1.6,2.2-2.4c0.2-0.2,0-0.2-0.2-0.2
	c-0.9,0.1-1.7,0-2.4-0.3c-1.2-0.6-1.9-1.4-2.3-2.3C32,85.2,31.9,85,31.8,84.9L31.8,84.9z M27.9,85.3c0.2,0.3,0.6,0.2,0.8,0
	c0.5-0.5,0.7-1.1,0.8-1.7c0.1-0.4-1.1-0.5-1.3-0.1C28,84,27.7,85,27.9,85.3L27.9,85.3z"/>
<path class="st0" d="M124.3,74.3h-0.2l-14.8-34.8h-7.6V41c1,0,1.8,0,2.4,0.1s1,0.2,1.3,0.5s0.4,0.6,0.5,1.2c0.1,0.5,0.1,1.3,0.1,2.2
	v28.8c0,1,0,1.7-0.1,2.3c-0.1,0.6-0.2,1-0.5,1.2c-0.3,0.3-0.7,0.4-1.3,0.5c-0.6,0.1-1.4,0.1-2.4,0.1v1.5H112v-1.5
	c-0.9,0-1.7,0-2.2-0.1s-0.9-0.3-1.2-0.5c-0.2-0.3-0.4-0.7-0.5-1.2c-0.1-0.6-0.1-1.3-0.1-2.3V44.6h0.1l14.7,35.1h1.4l14.1-35.1h0.1
	v29.2c0,1,0,1.7-0.1,2.3c-0.1,0.6-0.2,1-0.5,1.2c-0.3,0.3-0.6,0.4-1.2,0.5c-0.5,0.1-1.3,0.1-2.2,0.1v1.5h11.8v-1.5
	c-1,0-1.8,0-2.4-0.1c-0.6-0.1-1-0.3-1.3-0.5c-0.3-0.3-0.5-0.7-0.6-1.2c-0.1-0.6-0.1-1.3-0.1-2.3V45.2c0-1,0-1.7,0.1-2.3
	s0.3-1,0.5-1.2c0.3-0.3,0.7-0.4,1.3-0.5s1.4-0.1,2.4-0.1v-1.5h-8L124.3,74.3L124.3,74.3z M166,62.2l-3.7,0.9
	c-2.1,0.4-3.9,0.9-5.4,1.5c-1.5,0.6-2.9,1.2-3.9,1.9c-1.4,0.9-2.3,1.8-2.9,3s-0.9,2.3-0.9,3.7c0,1.2,0.2,2.2,0.7,3
	c0.4,0.9,1,1.6,1.8,2.2s1.6,1,2.6,1.3s2,0.4,3.1,0.4c1.3,0,2.5-0.1,3.5-0.4s2-0.7,2.8-1.2c0.9-0.5,1.6-1.1,2.4-1.8h0.2
	c0.2,1,0.7,1.8,1.3,2.3s1.4,0.8,2.4,0.8c0.7,0,1.3-0.1,1.8-0.2s1-0.3,1.4-0.5l-0.4-1.2c-0.2,0.1-0.5,0.2-0.8,0.3
	c-0.3,0.1-0.6,0.1-0.9,0.1c-0.6,0-1.1-0.3-1.4-1c-0.3-0.7-0.5-1.7-0.5-3V60c0-2.8-0.8-4.9-2.3-6.2s-3.8-2-6.7-2
	c-1.5,0-2.9,0.2-4.1,0.6c-1.2,0.4-2.3,0.9-3.1,1.5c-0.9,0.6-1.5,1.2-2,1.9s-0.7,1.3-0.7,1.9c0,0.4,0.1,0.8,0.3,1.1s0.6,0.4,1.1,0.5
	c0.5,0,0.9-0.1,1.2-0.3s0.5-0.5,0.6-1c0.2-0.5,0.5-1,0.8-1.5s0.7-1,1.2-1.4s1.1-0.8,1.8-1.1s1.6-0.4,2.7-0.4c1.4,0,2.6,0.2,3.4,0.7
	c0.9,0.5,1.5,1.2,1.9,2.1c0.4,0.9,0.6,2,0.6,3.4L166,62.2L166,62.2z M166,74.7c-0.6,0.6-1.2,1.1-2,1.6s-1.5,0.9-2.5,1.3
	c-0.9,0.3-1.9,0.5-3,0.5c-1.2,0-2.2-0.2-3.1-0.6c-0.9-0.4-1.6-1-2.1-1.8s-0.7-1.8-0.7-3c0-1,0.2-1.8,0.7-2.6
	c0.5-0.8,1.2-1.6,2.3-2.3c1-0.7,2.4-1.4,4.1-2c1.7-0.6,3.8-1.3,6.3-1.9V74.7L166,74.7z M182.2,52.1l-0.4-0.3
	c-0.6,0.5-1.2,0.9-1.8,1.2s-1.2,0.6-1.9,0.8s-1.5,0.4-2.3,0.5v1.1c0.8,0,1.5,0,1.9,0.1c0.5,0.1,0.8,0.2,1.1,0.5
	c0.2,0.2,0.4,0.6,0.5,1.1s0.1,1.2,0.1,2v15.2c0,0.9,0,1.6-0.1,2.1s-0.2,0.9-0.5,1.2c-0.2,0.3-0.6,0.4-1.1,0.5s-1.1,0.1-1.9,0.1v1.3
	H187v-1.3c-1,0-1.8,0-2.4-0.1c-0.6-0.1-1-0.3-1.3-0.5c-0.3-0.3-0.5-0.6-0.5-1.2s-0.1-1.2-0.1-2V58.9c0.7-1,1.5-1.9,2.2-2.7
	s1.4-1.4,2.1-1.8c0.7-0.4,1.4-0.7,2.1-0.7c0.4,0,0.6,0.1,0.9,0.2s0.5,0.3,0.6,0.6c0.2,0.3,0.4,0.6,0.5,1.1c0.2,0.6,0.5,1,0.8,1.3
	s0.7,0.4,1,0.4c0.5,0,0.8-0.2,1.1-0.5s0.4-0.8,0.4-1.4c0-0.6-0.2-1.1-0.5-1.7c-0.4-0.6-0.9-1-1.5-1.4s-1.5-0.6-2.5-0.6
	c-0.9,0-1.7,0.2-2.5,0.5s-1.5,0.8-2.3,1.5s-1.6,1.6-2.5,2.6h-0.1L182.2,52.1L182.2,52.1z M206.1,86.4c-0.2,0.5-0.5,1.1-0.9,1.8
	c-0.4,0.6-0.7,1.3-1.2,1.9s-1,1.1-1.5,1.5s-1.1,0.6-1.8,0.6c-0.5,0-1-0.2-1.3-0.4c-0.3-0.3-0.6-0.6-0.9-1c-0.3-0.4-0.6-0.7-1-1
	c-0.3-0.3-0.8-0.4-1.3-0.5c-0.4,0-0.7,0.1-0.9,0.4c-0.3,0.3-0.4,0.6-0.4,1c0,0.5,0.2,1.1,0.6,1.5c0.4,0.5,1,0.9,1.8,1.2
	s1.7,0.5,2.7,0.5c0.6,0,1.2-0.1,1.8-0.2c0.6-0.2,1.3-0.5,2-1s1.4-1.3,2.1-2.3c0.7-1,1.4-2.4,2.1-4.1l11.6-29.9
	c0.3-0.8,0.6-1.3,0.8-1.7c0.3-0.4,0.6-0.6,0.9-0.7c0.4-0.1,0.9-0.2,1.5-0.2v-1.3h-7.5v1.3c1,0,1.6,0.1,2.1,0.2
	c0.4,0.1,0.6,0.4,0.6,0.7s-0.1,0.6-0.3,1.1l-7.5,19.1h-0.1l-7.6-18.2c-0.2-0.4-0.3-0.8-0.4-1.1c-0.1-0.3-0.2-0.6-0.2-0.8
	c0-0.4,0.2-0.7,0.7-0.9s1.2-0.2,2.2-0.2v-1.3h-9.4v1.3c0.5,0,1,0,1.3,0.1s0.7,0.2,0.9,0.5c0.3,0.2,0.5,0.6,0.8,1.1s0.6,1.2,0.9,2
	l9.2,21.5L206.1,86.4L206.1,86.4z M236.7,73.7c0,1,0,1.8-0.1,2.3c-0.1,0.6-0.3,1-0.5,1.3c-0.3,0.3-0.7,0.5-1.3,0.5
	c-0.6,0.1-1.4,0.1-2.3,0.1v1.5h15.2c1.8,0,3.4-0.2,4.8-0.6c1.3-0.4,2.5-0.9,3.4-1.5c0.9-0.6,1.7-1.4,2.2-2.2c0.6-0.8,1-1.6,1.3-2.5
	c0.3-0.8,0.5-1.7,0.6-2.5s0.2-1.5,0.1-2.1c0-1.3-0.2-2.5-0.6-3.6c-0.4-1-1-1.9-1.7-2.7s-1.6-1.4-2.5-1.9s-1.9-0.9-3-1.2
	s-2.1-0.4-3.1-0.4v-0.1c1.7-0.3,3.1-0.8,4.2-1.4c1.1-0.6,2-1.3,2.7-2.1c0.7-0.8,1.1-1.5,1.5-2.3c0.3-0.8,0.5-1.5,0.6-2.2
	s0.1-1.2,0.1-1.7c0-1.4-0.3-2.7-0.9-3.8s-1.4-2.1-2.4-2.8c-0.8-0.6-1.7-1.1-2.7-1.5s-2-0.6-3.2-0.7c-1.2-0.1-2.4-0.2-3.9-0.2h-12.7
	v1.5c1,0,1.8,0,2.3,0.1c0.6,0.1,1,0.3,1.3,0.5c0.3,0.3,0.5,0.7,0.5,1.3c0.1,0.6,0.1,1.4,0.1,2.4V73.7L236.7,73.7z M245.8,41.5
	c1.7,0,3.1,0.2,4.2,0.6c1.1,0.4,2,1,2.7,1.7c0.6,0.7,1.1,1.5,1.4,2.4c0.3,0.9,0.4,1.8,0.4,2.8c0,0.7-0.1,1.5-0.2,2.3
	c-0.2,0.8-0.5,1.5-0.9,2.3c-0.4,0.7-1,1.4-1.8,2s-1.7,1.1-2.9,1.4c-1.2,0.4-2.6,0.5-4.3,0.5h-4.2V43.3c0-0.5,0-0.8,0.1-1.1
	s0.2-0.5,0.4-0.6s0.5-0.2,1-0.2L245.8,41.5L245.8,41.5z M245.6,59.5c1.8,0,3.4,0.2,4.7,0.6c1.3,0.4,2.4,0.9,3.3,1.7
	c0.9,0.8,1.6,1.7,2.1,2.7c0.5,1.1,0.7,2.3,0.7,3.6c0,1.6-0.2,3-0.6,4.1s-0.9,2-1.5,2.7s-1.4,1.2-2.1,1.6c-0.8,0.4-1.6,0.6-2.4,0.7
	c-0.8,0.1-1.6,0.2-2.4,0.2h-5.1c-0.5,0-1-0.1-1.3-0.2s-0.5-0.4-0.6-0.8s-0.2-1-0.1-1.7V59.5H245.6L245.6,59.5z M285.5,73
	c-0.3,0.5-0.6,1.1-1.1,1.7s-1,1.2-1.7,1.7s-1.5,1-2.5,1.3s-2.1,0.5-3.3,0.5c-0.6,0-1.3-0.1-2-0.2c-0.8-0.2-1.5-0.5-2.3-1
	s-1.5-1.2-2.2-2.2s-1.2-2.2-1.6-3.8c-0.4-1.6-0.6-3.5-0.6-5.8h18.6c0-1.2-0.1-2.4-0.3-3.7c-0.2-1.3-0.6-2.5-1.1-3.6
	c-0.5-1.2-1.2-2.2-2-3.1c-0.8-0.9-1.8-1.7-3.1-2.2c-1.2-0.5-2.7-0.8-4.3-0.8c-1.5,0-2.9,0.3-4.1,0.7c-1.2,0.5-2.3,1.2-3.2,2
	c-0.9,0.9-1.7,1.9-2.3,3c-0.6,1.1-1.1,2.4-1.4,3.7s-0.5,2.7-0.5,4c0,1.5,0.1,3,0.3,4.4s0.6,2.8,1.2,4c0.5,1.2,1.3,2.3,2.2,3.3
	c0.9,0.9,2.1,1.7,3.5,2.2s3,0.8,4.9,0.8c0.7,0,1.4-0.1,2.3-0.2c0.8-0.2,1.7-0.5,2.6-0.9s1.8-1.1,2.7-1.9c0.9-0.8,1.7-2,2.5-3.3
	L285.5,73L285.5,73z M268.2,63.5c0.1-1.7,0.4-3.2,0.8-4.3c0.4-1.2,0.9-2.1,1.5-2.9c0.6-0.7,1.2-1.3,1.9-1.7c0.7-0.4,1.3-0.7,2-0.8
	c0.6-0.2,1.2-0.2,1.7-0.2c1.3,0,2.3,0.3,3.2,0.7s1.6,1.1,2.1,1.8c0.5,0.8,1,1.6,1.3,2.5s0.5,1.8,0.6,2.6c0.1,0.9,0.2,1.6,0.2,2.3
	L268.2,63.5L268.2,63.5z M287.6,79.4h11.3v-1.3c-0.9,0-1.7,0-2.2-0.1s-0.9-0.3-1.2-0.5c-0.2-0.3-0.4-0.6-0.5-1.2
	c-0.1-0.5-0.1-1.2-0.1-2V38.2l-0.4-0.3c-0.7,0.4-1.4,0.8-2,1.1s-1.4,0.6-2.1,0.8c-0.8,0.2-1.7,0.4-2.8,0.6v1.1c1,0,1.7,0,2.3,0.1
	c0.6,0.1,1,0.2,1.2,0.4c0.3,0.2,0.4,0.6,0.5,1c0.1,0.5,0.1,1.1,0.1,1.9v29.4c0,0.9,0,1.5-0.1,2.1c-0.1,0.5-0.2,0.9-0.5,1.2
	c-0.3,0.3-0.7,0.4-1.2,0.5c-0.6,0.1-1.3,0.1-2.3,0.1L287.6,79.4L287.6,79.4z M301.9,79.4h11.3v-1.3c-0.9,0-1.7,0-2.2-0.1
	s-0.9-0.3-1.2-0.5c-0.2-0.3-0.4-0.6-0.5-1.2c-0.1-0.5-0.1-1.2-0.1-2V38.2l-0.4-0.3c-0.7,0.4-1.4,0.8-2,1.1s-1.4,0.6-2.1,0.8
	c-0.8,0.2-1.7,0.4-2.8,0.6v1.1c1,0,1.7,0,2.3,0.1c0.6,0.1,1,0.2,1.2,0.4c0.3,0.2,0.4,0.6,0.5,1c0.1,0.5,0.1,1.1,0.1,1.9v29.4
	c0,0.9,0,1.5-0.1,2.1c-0.1,0.5-0.2,0.9-0.5,1.2c-0.3,0.3-0.7,0.4-1.2,0.5c-0.6,0.1-1.3,0.1-2.3,0.1L301.9,79.4L301.9,79.4z
	 M334.9,73c-0.3,0.5-0.6,1.1-1.1,1.7s-1,1.2-1.7,1.7s-1.5,1-2.5,1.3s-2.1,0.5-3.3,0.5c-0.6,0-1.3-0.1-2-0.2c-0.8-0.2-1.5-0.5-2.3-1
	s-1.5-1.2-2.2-2.2s-1.2-2.2-1.6-3.8c-0.4-1.6-0.6-3.5-0.6-5.8h18.6c0-1.2-0.1-2.4-0.3-3.7c-0.2-1.3-0.6-2.5-1.1-3.6
	c-0.5-1.2-1.2-2.2-2-3.1c-0.8-0.9-1.8-1.7-3.1-2.2c-1.2-0.5-2.7-0.8-4.3-0.8c-1.5,0-2.9,0.3-4.1,0.7c-1.2,0.5-2.3,1.2-3.2,2
	c-0.9,0.9-1.7,1.9-2.3,3c-0.6,1.1-1.1,2.4-1.4,3.7s-0.5,2.7-0.5,4c0,1.5,0.1,3,0.3,4.4s0.6,2.8,1.2,4c0.5,1.2,1.3,2.3,2.2,3.3
	c0.9,0.9,2.1,1.7,3.5,2.2s3,0.8,4.9,0.8c0.7,0,1.4-0.1,2.3-0.2c0.8-0.2,1.7-0.5,2.6-0.9s1.8-1.1,2.7-1.9c0.9-0.8,1.7-2,2.5-3.3
	L334.9,73L334.9,73z M317.6,63.5c0.1-1.7,0.4-3.2,0.8-4.3c0.4-1.2,0.9-2.1,1.5-2.9c0.6-0.7,1.2-1.3,1.9-1.7c0.7-0.4,1.3-0.7,2-0.8
	c0.6-0.2,1.2-0.2,1.7-0.2c1.3,0,2.3,0.3,3.2,0.7s1.6,1.1,2.1,1.8c0.5,0.8,1,1.6,1.3,2.5s0.5,1.8,0.6,2.6c0.1,0.9,0.2,1.6,0.2,2.3
	L317.6,63.5L317.6,63.5z"/>
</svg>
