<svg xmlns="http://www.w3.org/2000/svg" viewBox="0 0 64 64" fill="currentColor">
  <path d="M34.72 48.04h3.14s.94-.104 1.42-.624c.44-.48.44-1.38.44-1.38s-.06-4.22 1.9-4.84c1.94-.6 4.42 4.04 7.06 5.82 2.0 1.34 3.5 1.04 3.5 1.04l7.04-.1s3.68-.22 1.94-3.12c-.14-.24-1.02-2.14-5.22-6.04-4.4-4.08-3.82-3.42 1.5-10.48 3.22-4.3 4.52-6.92 4.12-8.04-.38-1.06-2.76-.78-2.76-.78l-7.92.04s-.6-.08-.98.18c-.4.24-.64.8-.64.8s-1.16 3.08-2.7 5.7c-3.26 5.54-4.56 5.84-5.1 5.5-.98-.66-.74-2.64-.74-4.04 0-4.38.66-6.22-1.3-6.7-.66-.16-1.14-.26-2.82-.28-2.14-.02-3.96.02-4.98.52-.68.32-1.2 1.06-.88 1.1.4.06 1.28.24 1.76.88.6.82.58 2.7.58 2.7s.34 5.16-.8 5.8c-.78.44-1.86-.46-4.18-4.58-1.48-2.56-2.6-5.4-2.6-5.4s-.22-.52-.6-.8c-.46-.34-1.12-.46-1.12-.46l-7.52.06s-1.12.04-1.54.52c-.36.44-.04 1.34-.04 1.34s5.4 12.66 11.54 19.04c5.64 5.86 12.04 5.48 12.04 5.48z"/>
</svg>