<svg xmlns="http://www.w3.org/2000/svg" viewBox="0 0 64 64" fill="currentColor">
  <path d="M32 4C16.536 4 4 16.536 4 32c0 5.16 1.4 9.984 3.84 14.136L4 60l14.28-3.744A27.84 27.84 0 0032 60c15.464 0 28-12.536 28-28S47.464 4 32 4zm0 50.4A22.32 22.32 0 0118.28 50.8l-.84-.504-8.712 2.28 2.328-8.496-.552-.876A22.28 22.28 0 019.6 32c0-12.372 10.028-22.4 22.4-22.4S54.4 19.628 54.4 32 44.372 54.4 32 54.4z"/>
  <path d="M44.12 37.72c-.66-.33-3.9-1.926-4.506-2.148-.606-.222-1.044-.33-1.488.336-.444.66-1.71 2.148-2.1 2.592-.384.444-.774.498-1.434.168-.66-.33-2.784-.126-5.304-3.456-1.962-1.848-3.282-4.128-3.666-4.824-.384-.66-.042-1.02.288-1.35.3-.3.66-.774.99-1.164.33-.384.444-.66.66-1.098.222-.444.114-.834-.054-1.164-.168-.33-1.488-3.588-2.04-4.914-.54-1.29-1.086-1.116-1.488-1.134-.384-.018-.828-.024-1.266-.024s-1.158.168-1.764.834c-.606.66-2.316 2.262-2.316 5.52s2.37 6.402 2.706 6.846c.33.444 4.674 7.134 11.322 10.008 1.584.684 2.82 1.092 3.78 1.398 1.59.504 3.036.432 4.176.264 1.278-.192 3.9-1.596 4.452-3.132.546-1.542.546-2.862.384-3.138-.168-.27-.606-.432-1.272-.762z"/>
</svg>